<svg width="55" height="41" viewBox="0 0 55 41" fill="none" xmlns="http://www.w3.org/2000/svg">
<path fill-rule="evenodd" clip-rule="evenodd" d="M0 3C0 1.34315 1.34315 0 3 0H52C53.6569 0 55 1.34315 55 3V38C55 39.6569 53.6569 41 52 41H3C1.34315 41 0 39.6569 0 38V3Z" fill="#E6E7E8"/>
<path fill-rule="evenodd" clip-rule="evenodd" d="M17.9292 15.978C17.5509 16.4279 16.9456 16.7827 16.3403 16.732C16.2646 16.1237 16.561 15.4774 16.9078 15.0782C17.2861 14.6157 17.9481 14.2862 18.4841 14.2608C18.5471 14.8945 18.3012 15.5154 17.9292 15.978ZM18.4778 16.8525C17.9445 16.8216 17.4579 17.0136 17.0649 17.1687C16.812 17.2685 16.5978 17.353 16.4349 17.353C16.252 17.353 16.029 17.264 15.7786 17.164L15.7786 17.164L15.7786 17.164C15.4505 17.0331 15.0754 16.8833 14.682 16.8905C13.7804 16.9032 12.9418 17.4164 12.4815 18.2338C11.5357 19.8685 12.2356 22.289 13.1499 23.6196C13.5975 24.2786 14.1335 25.0009 14.8397 24.9756C15.1503 24.9638 15.3738 24.8685 15.6051 24.7699C15.8714 24.6563 16.148 24.5384 16.5799 24.5384C16.9968 24.5384 17.2614 24.6533 17.5153 24.7635C17.7567 24.8684 17.9886 24.9691 18.3327 24.9629C19.0642 24.9502 19.5244 24.3039 19.9721 23.645C20.4552 22.9377 20.6675 22.2475 20.6997 22.1427L20.7035 22.1306C20.7027 22.1298 20.6968 22.1271 20.6862 22.1222C20.5247 22.0479 19.2904 21.4801 19.2785 19.9573C19.2666 18.6791 20.2576 18.0315 20.4136 17.9295C20.4231 17.9233 20.4295 17.9192 20.4324 17.917C19.8019 16.9792 18.8182 16.8778 18.4778 16.8525ZM23.5408 24.8932V15.0149H27.2294C29.1335 15.0149 30.4639 16.3328 30.4639 18.2591C30.4639 20.1853 29.1083 21.5159 27.1789 21.5159H25.0667V24.8932H23.5408ZM25.0667 16.3076H26.8259C28.1499 16.3076 28.9066 17.0172 28.9066 18.2655C28.9066 19.5137 28.1499 20.2297 26.8195 20.2297H25.0667V16.3076ZM35.5018 23.7083C35.0983 24.4813 34.2092 24.9692 33.2508 24.9692C31.8322 24.9692 30.8422 24.1201 30.8422 22.8402C30.8422 21.573 31.8006 20.8443 33.5724 20.7366L35.4766 20.6225V20.0776C35.4766 19.2729 34.9532 18.8357 34.0201 18.8357C33.2508 18.8357 32.6897 19.2349 32.5762 19.8431H31.2016C31.2458 18.5632 32.4438 17.6318 34.0642 17.6318C35.8107 17.6318 36.9457 18.5505 36.9457 19.9762V24.8932H35.5333V23.7083H35.5018ZM33.6607 23.797C32.8473 23.797 32.3303 23.4042 32.3303 22.8022C32.3303 22.1813 32.8284 21.8201 33.7805 21.7631L35.4766 21.6554V22.213C35.4766 23.1381 34.6947 23.797 33.6607 23.797ZM41.6304 25.2797C41.0188 27.0095 40.319 27.5798 38.8309 27.5798C38.7174 27.5798 38.3391 27.5671 38.2509 27.5418V26.3569C38.3454 26.3696 38.5787 26.3822 38.6985 26.3822C39.3732 26.3822 39.7515 26.0971 39.9848 25.3558L40.1235 24.9186L37.5384 17.7269H39.1336L40.9306 23.5626H40.9621L42.7591 17.7269H44.3102L41.6304 25.2797Z" fill="black"/>
</svg>
