<svg width="24" height="24" viewBox="0 0 24 24" fill="none" xmlns="http://www.w3.org/2000/svg">
<path d="M4.3637 10.5682C3.57143 10.5682 2.93188 11.2077 2.93188 12C2.93188 12.7922 3.57143 13.4318 4.3637 13.4318C5.15598 13.4318 5.79552 12.7922 5.79552 12C5.79552 11.2077 5.15598 10.5682 4.3637 10.5682ZM4.3637 4.84088C3.57143 4.84088 2.93188 5.48043 2.93188 6.2727C2.93188 7.06497 3.57143 7.70452 4.3637 7.70452C5.15598 7.70452 5.79552 7.06497 5.79552 6.2727C5.79552 5.48043 5.15598 4.84088 4.3637 4.84088ZM4.3637 16.2954C3.57143 16.2954 2.93188 16.9445 2.93188 17.7272C2.93188 18.51 3.58098 19.1591 4.3637 19.1591C5.14643 19.1591 5.79552 18.51 5.79552 17.7272C5.79552 16.9445 5.15598 16.2954 4.3637 16.2954ZM8.18188 18.6818H19.6364C20.1614 18.6818 20.591 18.2522 20.591 17.7272C20.591 17.2022 20.1614 16.7727 19.6364 16.7727H8.18188C7.65688 16.7727 7.22734 17.2022 7.22734 17.7272C7.22734 18.2522 7.65688 18.6818 8.18188 18.6818ZM8.18188 12.9545H19.6364C20.1614 12.9545 20.591 12.525 20.591 12C20.591 11.475 20.1614 11.0454 19.6364 11.0454H8.18188C7.65688 11.0454 7.22734 11.475 7.22734 12C7.22734 12.525 7.65688 12.9545 8.18188 12.9545ZM7.22734 6.2727C7.22734 6.7977 7.65688 7.22724 8.18188 7.22724H19.6364C20.1614 7.22724 20.591 6.7977 20.591 6.2727C20.591 5.7477 20.1614 5.31815 19.6364 5.31815H8.18188C7.65688 5.31815 7.22734 5.7477 7.22734 6.2727Z" fill="#828282"/>
</svg>
