<svg width="34" height="35" viewBox="0 0 34 35" fill="none" xmlns="http://www.w3.org/2000/svg">
<g clip-path="url(#clip0_67_482)">
<path d="M7.95364 7.55131C8.92466 7.28253 9.93043 7.16057 10.9376 7.1895C12.3487 7.21085 13.7021 7.75391 14.7366 8.71398C15.0191 8.97823 15.2589 9.28922 15.5273 9.57176C15.6533 9.70388 15.8017 9.81364 16.009 9.99251C16.0716 9.81998 16.1165 9.64155 16.1431 9.45996C16.1553 8.58389 16.1777 7.70579 16.1431 6.83176C16.1135 5.82267 15.8703 4.83132 15.4297 3.92304C14.6492 2.33149 13.3808 1.75828 11.7425 2.2014C11.3067 2.32738 10.8834 2.49341 10.4782 2.69736C9.83586 3.00836 9.21794 3.3661 8.58172 3.68726C7.47945 4.26506 6.30607 4.69559 5.09167 4.96782C4.70141 5.83983 4.51237 6.75452 4.15869 7.78506C4.6201 7.82572 4.93719 7.87043 5.25632 7.87653C6.16621 7.89491 7.07418 7.78543 7.95364 7.55131Z" fill="url(#paint0_linear_67_482)"/>
<path d="M23.9648 15.9989C24.1829 16.0557 24.4052 16.0952 24.6295 16.1168C25.6052 16.1168 26.5808 16.1168 27.5545 16.07C28.434 16.0211 29.2953 15.7994 30.0892 15.4176C31.573 14.7082 32.1218 13.4357 31.8657 12.1816C31.7279 11.4127 31.4613 10.6726 31.0771 9.99243C30.3197 8.73991 29.7138 7.40187 29.2721 6.00642C29.1684 5.669 29.0403 5.33768 28.9204 4.9901L26.1703 4.13232C26.1357 4.63845 26.1011 4.98807 26.093 5.34175C26.0941 6.22018 26.2193 7.09406 26.465 7.93743C26.7459 9.01453 26.8529 10.1296 26.7821 11.2405C26.7471 12.2878 26.3925 13.2992 25.7658 14.139C25.3656 14.6064 24.9387 15.0503 24.4872 15.4684C24.3327 15.6107 24.1884 15.7651 23.9648 15.9989Z" fill="url(#paint1_linear_67_482)"/>
<path d="M8.24238 19.8305C8.65821 19.2915 9.13575 18.803 9.66523 18.3751C9.77905 18.2755 9.95793 18.2166 9.89695 17.9686C9.78487 17.9309 9.66899 17.9057 9.5514 17.8934C8.53508 17.8934 7.53299 17.8304 6.53496 17.9117C5.7932 17.981 5.06314 18.1435 4.36206 18.3955C3.84145 18.5794 3.36213 18.8639 2.95141 19.2329C1.97168 20.1232 1.87411 21.2655 2.26438 22.4587C2.48344 23.104 2.76245 23.7274 3.09776 24.3206C3.75837 25.5178 4.36816 26.7313 4.72387 28.0546C4.77469 28.2416 4.84177 28.4265 4.90478 28.6095C4.94458 28.7329 5.01537 28.8441 5.11039 28.9323C5.20541 29.0206 5.32147 29.083 5.44749 29.1136C6.05729 29.3026 6.66708 29.5201 7.29314 29.7234C7.41077 29.7476 7.53084 29.7578 7.65088 29.7539C7.8765 29.514 7.85414 29.2477 7.85414 28.9957C7.91512 27.8472 7.70169 26.7313 7.42932 25.6276C7.21141 24.711 7.13532 23.7663 7.2037 22.8266C7.25459 21.7488 7.61523 20.7085 8.24238 19.8305Z" fill="url(#paint2_linear_67_482)"/>
<path d="M25.9569 26.4671C25.491 26.6088 25.0155 26.7168 24.534 26.7903C22.2189 27.0951 20.2248 26.4732 18.6739 24.656C18.5736 24.5277 18.465 24.4061 18.3487 24.2921C18.2362 24.2131 18.1164 24.1451 17.991 24.0889C17.9412 24.2286 17.9058 24.3729 17.8853 24.5198C17.8853 25.5361 17.8649 26.5362 17.8853 27.5423C17.9304 28.5215 18.204 29.4765 18.6841 30.3311C19.3325 31.5507 20.3976 32.067 21.7676 31.8759C22.605 31.7426 23.4081 31.4463 24.1316 31.0039C25.0218 30.4659 25.9577 30.0074 26.9285 29.6339C27.4468 29.4449 27.9692 29.268 28.4956 29.0973C28.7213 29.0241 28.9367 28.9388 29.016 28.7009C29.2701 27.9346 29.6258 27.2008 29.7559 26.2618C29.5187 26.1937 29.2768 26.1427 29.0323 26.1093C27.9944 26.056 26.9548 26.1769 25.9569 26.4671Z" fill="url(#paint3_linear_67_482)"/>
<path d="M16.1413 27.2435C16.1738 26.3349 16.1555 25.4243 16.1413 24.5157C16.1147 24.3379 16.069 24.1634 16.0051 23.9954C15.3608 24.6052 14.812 25.1967 14.1961 25.7048C13.5876 26.2008 12.8629 26.5338 12.0903 26.6724C11.2975 26.8187 10.4845 26.8492 9.57384 26.9407C9.57384 27.2577 9.57384 27.5118 9.57384 27.7537C9.57384 28.3635 9.56368 28.9855 9.54742 29.5994C9.53709 29.7943 9.51469 29.9885 9.48034 30.1807C9.44396 30.3401 9.46251 30.5072 9.53298 30.6548C9.60345 30.8024 9.72171 30.9218 9.86857 30.9937C10.5878 31.4406 11.3885 31.7404 12.2244 31.8759C13.4806 32.0589 14.4603 31.6279 15.1453 30.5649C15.2719 30.3761 15.3808 30.1761 15.4705 29.9673C15.8543 29.1064 16.0814 28.1841 16.1413 27.2435Z" fill="url(#paint4_linear_67_482)"/>
<path d="M3.78082 15.3506C4.62121 15.7844 5.54553 16.0312 6.49033 16.0742C7.46193 16.1372 8.4376 16.1087 9.41327 16.1047C9.63813 16.0793 9.86046 16.0351 10.0779 15.9725C9.75272 15.6839 9.51896 15.4705 9.27911 15.2652C8.28922 14.4135 7.58796 13.3769 7.34404 12.0841C7.26546 11.5065 7.21998 10.9249 7.20785 10.3421C7.18956 10.088 7.26273 9.81567 7.02085 9.58598C6.42935 9.58598 5.81549 9.60224 5.20163 9.58598C4.58777 9.56972 3.98205 9.50264 3.28688 9.45386C2.77079 10.1449 2.40142 10.9341 2.20145 11.7731C1.76647 13.3443 2.32951 14.572 3.78082 15.3506Z" fill="url(#paint5_linear_67_482)"/>
<path d="M17.8811 9.37054C17.9094 9.60028 17.9535 9.8278 18.0132 10.0515C18.379 9.64494 18.5884 9.399 18.8039 9.16321C19.56 8.30388 20.5538 7.68782 21.6597 7.39278C22.293 7.24813 22.9413 7.17989 23.5907 7.18952C23.8692 7.18952 24.1802 7.27285 24.4445 6.98625C24.4262 5.88659 24.3184 4.75034 24.5319 3.62426C24.5509 3.51018 24.5305 3.39302 24.4739 3.29213C24.4174 3.19123 24.3281 3.11265 24.2209 3.06935C23.5523 2.66534 22.8286 2.36065 22.0724 2.16482C20.5662 1.82741 19.2836 2.45143 18.6067 3.84582C18.1632 4.71882 17.9162 5.67833 17.8831 6.65696C17.8668 7.54929 17.875 8.45992 17.8811 9.37054Z" fill="url(#paint6_linear_67_482)"/>
<path d="M30.5324 18.8345C29.5604 18.2335 28.4432 17.9082 27.3005 17.8934C26.3615 17.8548 25.4183 17.8812 24.4772 17.8934C24.2877 17.918 24.1007 17.9588 23.9182 18.0153C24.1642 18.2186 24.3004 18.3426 24.4406 18.4564C25.9712 19.6902 26.8168 21.2574 26.7822 23.2555C26.7709 23.4498 26.7709 23.6446 26.7822 23.8389C26.811 24.0279 26.8503 24.2152 26.9001 24.3999L30.6869 24.4913C31.2621 23.7514 31.437 23.3856 31.7805 22.2127C32.1789 20.8387 31.7317 19.611 30.5324 18.8345Z" fill="url(#paint7_linear_67_482)"/>
<path d="M18.4706 18.0255C18.3333 18.0285 18.1969 18.0476 18.0641 18.0824C18.031 18.1757 18.0091 18.2726 17.999 18.3711C18.1921 19.9687 18.621 21.4932 19.5194 22.8429C20.6496 24.5483 22.2554 25.2617 24.2819 25.0442C24.8917 24.9792 24.9832 24.8857 25.0828 24.2739C25.11 24.1139 25.1256 23.9523 25.1295 23.7901C25.156 22.0745 24.4852 20.6883 23.0969 19.6902C21.7086 18.6922 20.1394 18.2247 18.4706 18.0255Z" fill="url(#paint8_linear_67_482)"/>
<path d="M19.4646 11.212C18.6516 12.4885 18.245 13.9215 18.0092 15.4074C17.9989 15.5671 17.9989 15.7273 18.0092 15.8871C18.1582 15.926 18.3108 15.9492 18.4645 15.9562C19.5961 15.8475 20.7008 15.5464 21.731 15.0659C22.5419 14.7275 23.2741 14.2251 23.8815 13.5902C24.3845 13.0566 24.7526 12.4106 24.9552 11.7059C25.1578 11.0012 25.189 10.2583 25.0462 9.53913C25.0328 9.3902 24.9652 9.25139 24.8561 9.14908C24.7471 9.04678 24.6042 8.9881 24.4547 8.98422C22.5156 8.76673 20.8224 9.09398 19.4646 11.212Z" fill="url(#paint9_linear_67_482)"/>
<path d="M14.5131 22.8266C15.4136 21.4607 15.7551 19.9118 16.001 18.3324C16.001 18.2755 15.9685 18.2105 15.9278 18.0763C15.8227 18.0418 15.7132 18.0227 15.6026 18.0194C15.0558 18.0916 14.513 18.192 13.9765 18.3202C12.6858 18.6739 11.4438 19.1455 10.4357 20.0805C9.16728 21.2594 8.71807 22.7229 8.94776 24.4121C9.0067 24.843 9.13882 24.9792 9.55755 25.0381C11.515 25.3146 13.322 24.6296 14.5131 22.8266Z" fill="url(#paint10_linear_67_482)"/>
<path d="M9.64497 8.96801C9.16934 9.01476 9.01282 9.17127 8.94981 9.62455C8.70386 11.4397 9.23234 12.9662 10.6938 14.1086C12.1553 15.2509 13.8769 15.8139 15.7287 15.9583C15.7836 15.9583 15.8425 15.9095 15.8994 15.8831C15.9197 15.8587 15.9543 15.8383 15.9604 15.8119C15.9909 15.7203 16.004 15.6238 15.999 15.5273C15.7287 14.1248 15.4482 12.7284 14.7042 11.4743C13.383 9.24445 11.6796 8.76881 9.64497 8.96801Z" fill="url(#paint11_linear_67_482)"/>
<path d="M16.993 3.17096C17.4187 3.1678 17.8261 2.99786 18.1279 2.69763C18.4296 2.3974 18.6016 1.99081 18.6069 1.56517C18.5952 1.13888 18.4148 0.734655 18.1054 0.441217C17.796 0.147779 17.3827 -0.0108885 16.9564 4.11595e-05C16.5465 0.00722498 16.1552 0.17228 15.8641 0.460819C15.5729 0.749358 15.4042 1.13913 15.3933 1.54892C15.3943 1.97494 15.5625 2.38356 15.8616 2.68689C16.1608 2.99023 16.567 3.16404 16.993 3.17096Z" fill="url(#paint12_linear_67_482)"/>
<path d="M32.3657 15.3831C32.1545 15.3914 31.947 15.4414 31.7551 15.53C31.5632 15.6186 31.3907 15.7442 31.2474 15.8996C31.1041 16.055 30.9929 16.2371 30.92 16.4355C30.8472 16.6339 30.8142 16.8447 30.8229 17.0559C30.8438 17.4707 31.0262 17.8608 31.331 18.1428C31.6359 18.4248 32.039 18.5763 32.4541 18.5648C32.8692 18.5534 33.2634 18.38 33.5523 18.0817C33.8412 17.7833 34.0019 17.3838 33.9999 16.9685C33.9981 16.7567 33.9542 16.5474 33.8708 16.3527C33.7874 16.1579 33.6662 15.9817 33.5142 15.8342C33.3621 15.6867 33.1823 15.5709 32.9852 15.4934C32.788 15.416 32.5774 15.3785 32.3657 15.3831Z" fill="url(#paint13_linear_67_482)"/>
<path d="M3.16486 17.0071C3.17248 16.7945 3.13719 16.5826 3.0611 16.3839C2.98501 16.1853 2.86967 16.004 2.72198 15.851C2.57429 15.6979 2.39727 15.5761 2.20148 15.493C2.0057 15.4098 1.79517 15.3669 1.58245 15.3669C1.36974 15.3669 1.1592 15.4098 0.963417 15.493C0.767632 15.5761 0.590611 15.6979 0.442919 15.851C0.295226 16.004 0.179892 16.1853 0.1038 16.3839C0.0277075 16.5826 -0.00758018 16.7945 3.98521e-05 17.0071C0.0147319 17.417 0.18788 17.8051 0.483034 18.0899C0.778189 18.3747 1.17232 18.5338 1.58245 18.5338C1.99258 18.5338 2.38671 18.3747 2.68186 18.0899C2.97702 17.8051 3.15017 17.417 3.16486 17.0071Z" fill="url(#paint14_linear_67_482)"/>
<path d="M17.0314 30.8129C16.608 30.8214 16.2038 30.9913 15.9016 31.2879C15.5993 31.5845 15.4218 31.9853 15.4053 32.4085C15.4066 32.8166 15.5632 33.2089 15.8434 33.5056C16.1235 33.8024 16.5061 33.9814 16.9135 34.0061C17.3395 34.0239 17.7554 33.8737 18.0718 33.5878C18.3881 33.3019 18.5794 32.9032 18.6046 32.4776C18.6019 32.0525 18.438 31.6443 18.146 31.3353C17.854 31.0263 17.4557 30.8396 17.0314 30.8129Z" fill="url(#paint15_linear_67_482)"/>
</g>
<defs>
<linearGradient id="paint0_linear_67_482" x1="4.15869" y1="6.02276" x2="16.1655" y2="6.02276" gradientUnits="userSpaceOnUse">
<stop stop-color="#971E44"/>
<stop offset="1" stop-color="#C73153"/>
</linearGradient>
<linearGradient id="paint1_linear_67_482" x1="23.9648" y1="10.1307" x2="31.9247" y2="10.1307" gradientUnits="userSpaceOnUse">
<stop stop-color="#971E44"/>
<stop offset="1" stop-color="#C73153"/>
</linearGradient>
<linearGradient id="paint2_linear_67_482" x1="2.05095" y1="23.8084" x2="9.91118" y2="23.8084" gradientUnits="userSpaceOnUse">
<stop stop-color="#971E44"/>
<stop offset="1" stop-color="#C73153"/>
</linearGradient>
<linearGradient id="paint3_linear_67_482" x1="17.8771" y1="28.0037" x2="29.764" y2="28.0037" gradientUnits="userSpaceOnUse">
<stop stop-color="#971E44"/>
<stop offset="1" stop-color="#C73153"/>
</linearGradient>
<linearGradient id="paint4_linear_67_482" x1="9.47424" y1="27.959" x2="16.1616" y2="27.959" gradientUnits="userSpaceOnUse">
<stop stop-color="#971E44"/>
<stop offset="1" stop-color="#C73153"/>
</linearGradient>
<linearGradient id="paint5_linear_67_482" x1="2.05713" y1="12.7793" x2="10.0759" y2="12.7793" gradientUnits="userSpaceOnUse">
<stop stop-color="#971E44"/>
<stop offset="1" stop-color="#C73153"/>
</linearGradient>
<linearGradient id="paint6_linear_67_482" x1="17.8729" y1="6.05327" x2="24.544" y2="6.05327" gradientUnits="userSpaceOnUse">
<stop stop-color="#971E44"/>
<stop offset="1" stop-color="#C73153"/>
</linearGradient>
<linearGradient id="paint7_linear_67_482" x1="23.9202" y1="21.1802" x2="31.9268" y2="21.1802" gradientUnits="userSpaceOnUse">
<stop stop-color="#971E44"/>
<stop offset="1" stop-color="#C73153"/>
</linearGradient>
<linearGradient id="paint8_linear_67_482" x1="17.995" y1="21.5562" x2="25.1275" y2="21.5562" gradientUnits="userSpaceOnUse">
<stop stop-color="#971E44"/>
<stop offset="1" stop-color="#C73153"/>
</linearGradient>
<linearGradient id="paint9_linear_67_482" x1="17.9991" y1="12.4438" x2="25.1275" y2="12.4438" gradientUnits="userSpaceOnUse">
<stop stop-color="#971E44"/>
<stop offset="1" stop-color="#C73153"/>
</linearGradient>
<linearGradient id="paint10_linear_67_482" x1="8.89084" y1="21.5542" x2="16.001" y2="21.5542" gradientUnits="userSpaceOnUse">
<stop stop-color="#971E44"/>
<stop offset="1" stop-color="#C73153"/>
</linearGradient>
<linearGradient id="paint11_linear_67_482" x1="8.89086" y1="12.4418" x2="16.0031" y2="12.4418" gradientUnits="userSpaceOnUse">
<stop stop-color="#971E44"/>
<stop offset="1" stop-color="#C73153"/>
</linearGradient>
<linearGradient id="paint12_linear_67_482" x1="15.3953" y1="1.5855" x2="18.6089" y2="1.5855" gradientUnits="userSpaceOnUse">
<stop stop-color="#971E44"/>
<stop offset="1" stop-color="#C73153"/>
</linearGradient>
<linearGradient id="paint13_linear_67_482" x1="30.8229" y1="16.9726" x2="33.9999" y2="16.9726" gradientUnits="userSpaceOnUse">
<stop stop-color="#971E44"/>
<stop offset="1" stop-color="#C73153"/>
</linearGradient>
<linearGradient id="paint14_linear_67_482" x1="3.98165e-05" y1="16.9705" x2="3.16486" y2="16.9705" gradientUnits="userSpaceOnUse">
<stop stop-color="#971E44"/>
<stop offset="1" stop-color="#C73153"/>
</linearGradient>
<linearGradient id="paint15_linear_67_482" x1="15.3971" y1="32.4126" x2="18.6046" y2="32.4126" gradientUnits="userSpaceOnUse">
<stop stop-color="#971E44"/>
<stop offset="1" stop-color="#C73153"/>
</linearGradient>
<clipPath id="clip0_67_482">
<rect width="34" height="34.0102" fill="white"/>
</clipPath>
</defs>
</svg>
