<svg width="55" height="41" viewBox="0 0 55 41" fill="none" xmlns="http://www.w3.org/2000/svg">
<path fill-rule="evenodd" clip-rule="evenodd" d="M0 3C0 1.34315 1.34315 0 3 0H52C53.6569 0 55 1.34315 55 3V38C55 39.6569 53.6569 41 52 41H3C1.34315 41 0 39.6569 0 38V3Z" fill="#262626"/>
<g opacity="0.01">
<rect x="10.3125" y="8.91304" width="35.7038" height="23.1473" fill="white"/>
</g>
<rect x="23.4565" y="12.9458" width="9.41848" height="15.079" fill="#FF5F00"/>
<path fill-rule="evenodd" clip-rule="evenodd" d="M24.4264 20.4867C24.424 17.5447 25.8018 14.765 28.1628 12.9485C24.1519 9.85867 18.392 10.3087 14.9311 13.9824C11.4702 17.6561 11.4702 23.32 14.9311 26.9936C18.392 30.6673 24.1519 31.1174 28.1628 28.0275C25.8011 26.2105 24.4232 23.4296 24.4264 20.4867Z" fill="#EB001B"/>
<path fill-rule="evenodd" clip-rule="evenodd" d="M43.0759 26.186V26.8126H43.0101V26.186H42.8696V26.0564H43.2253V26.186H43.0759ZM43.7664 26.0564V26.8127H43.6916V26.2401L43.5751 26.7317H43.4944L43.3778 26.2401V26.8127H43.3001V26.0564H43.4077L43.5332 26.5966L43.6588 26.0564H43.7664Z" fill="#F79E1B"/>
<path fill-rule="evenodd" clip-rule="evenodd" d="M43.9919 20.4867C43.9918 24.1581 41.8531 27.5072 38.4842 29.1116C35.1153 30.716 31.1075 30.294 28.1631 28.0249C30.523 26.2069 31.9009 23.4275 31.9009 20.4853C31.9009 17.5432 30.523 14.7638 28.1631 12.9458C31.1075 10.6767 35.1153 10.2547 38.4842 11.8591C41.8531 13.4635 43.9918 16.8126 43.9919 20.484V20.4867Z" fill="#F79E1B"/>
</svg>
