<svg width="55" height="41" viewBox="0 0 55 41" fill="none" xmlns="http://www.w3.org/2000/svg">
<path fill-rule="evenodd" clip-rule="evenodd" d="M0 3C0 1.34315 1.34315 0 3 0H52C53.6569 0 55 1.34315 55 3V38C55 39.6569 53.6569 41 52 41H3C1.34315 41 0 39.6569 0 38V3Z" fill="#1B3D92"/>
<path opacity="0.68" fill-rule="evenodd" clip-rule="evenodd" d="M35.7157 14.583C35.9843 12.8639 35.7139 11.6944 34.7878 10.6347C33.7682 9.46834 31.9263 8.96867 29.5697 8.96867H22.7289C22.2474 8.96867 21.8371 9.32047 21.7622 9.79831L18.9135 27.9332C18.8575 28.2911 19.133 28.6145 19.4935 28.6145H23.7167L23.4252 30.4703C23.3761 30.7833 23.6169 31.0663 23.9326 31.0663H27.4924C27.9136 31.0663 28.2723 30.7586 28.338 30.3406L28.373 30.1588L29.0435 25.8895L29.0868 25.6536C29.1525 25.2359 29.5112 24.9277 29.9324 24.9277H30.4649C33.9135 24.9277 36.6138 23.5212 37.4027 19.4532C37.7325 17.7534 37.5619 16.3345 36.69 15.337C36.4266 15.0358 36.0984 14.7865 35.7157 14.583Z" fill="white"/>
<path opacity="0.7" fill-rule="evenodd" clip-rule="evenodd" d="M35.7157 14.583C35.9843 12.8639 35.7139 11.6944 34.7878 10.6347C33.7682 9.46834 31.9263 8.96867 29.5697 8.96867H22.7289C22.2474 8.96867 21.8371 9.32047 21.7622 9.79831L18.9135 27.9332C18.8575 28.2911 19.133 28.6145 19.4935 28.6145H23.7167L24.7775 21.8606L24.7446 22.0724C24.8197 21.5948 25.2261 21.2428 25.7079 21.2428H27.7152C31.6573 21.2428 34.7441 19.6348 35.6458 14.9848C35.6727 14.8475 35.6953 14.714 35.7157 14.583Z" fill="white"/>
<path fill-rule="evenodd" clip-rule="evenodd" d="M25.9173 14.6057C25.9623 14.3185 26.1462 14.0831 26.3934 13.9643C26.5058 13.9102 26.6315 13.8801 26.7631 13.8801H32.1254C32.7607 13.8801 33.353 13.9219 33.8944 14.0095C34.0491 14.0345 34.1998 14.0633 34.3462 14.0959C34.4923 14.1286 34.6345 14.1648 34.7719 14.2053C34.8407 14.2253 34.9082 14.2467 34.9748 14.2688C35.2407 14.3575 35.4884 14.4619 35.7162 14.5832C35.9847 12.8641 35.7144 11.6946 34.7883 10.6349C33.7682 9.46834 31.9263 8.96867 29.5697 8.96867H22.7289C22.2474 8.96867 21.8371 9.32047 21.7622 9.79831L18.9135 27.9332C18.8575 28.2911 19.133 28.6145 19.4935 28.6145H23.7167L24.7775 21.8606L25.9173 14.6057Z" fill="white"/>
</svg>
