<svg width="18" height="19" viewBox="0 0 18 19" fill="none" xmlns="http://www.w3.org/2000/svg">
<path d="M5.49461 14.5271C4.48726 14.5271 3.67223 15.3371 3.67223 16.3271C3.67223 17.3171 4.48726 18.1271 5.49461 18.1271C6.50195 18.1271 7.32614 17.3171 7.32614 16.3271C7.32614 15.3371 6.50195 14.5271 5.49461 14.5271ZM14.6523 14.5271C13.6449 14.5271 12.8299 15.3371 12.8299 16.3271C12.8299 17.3171 13.6449 18.1271 14.6523 18.1271C15.6596 18.1271 16.4838 17.3171 16.4838 16.3271C16.4838 15.3371 15.6596 14.5271 14.6523 14.5271ZM6.50195 10.0271H13.3244C14.0112 10.0271 14.6157 9.65808 14.927 9.10008L17.8941 3.57407C18.006 3.36597 18.0303 3.12302 17.9618 2.89748C17.8933 2.67194 17.7375 2.48184 17.5278 2.36807C17.4216 2.31091 17.3049 2.2751 17.1845 2.26273C17.064 2.25036 16.9423 2.26168 16.8264 2.29603C16.7104 2.33038 16.6026 2.38706 16.5092 2.46279C16.4158 2.53851 16.3387 2.63175 16.2823 2.73708L13.3244 8.22707H6.89573L2.99456 0.127075H0.915768C0.412095 0.127075 0 0.532075 0 1.02708C0 1.52208 0.412095 1.92708 0.915768 1.92708H1.83154L5.1283 8.75807L3.89201 10.9541C3.2235 12.1601 4.10264 13.6271 5.49461 13.6271H15.568C16.0717 13.6271 16.4838 13.2221 16.4838 12.7271C16.4838 12.2321 16.0717 11.8271 15.568 11.8271H5.49461L6.50195 10.0271Z" fill="#C73153"/>
</svg>
