<svg width="55" height="41" viewBox="0 0 55 41" fill="none" xmlns="http://www.w3.org/2000/svg">
<path fill-rule="evenodd" clip-rule="evenodd" d="M0 3C0 1.34315 1.34315 0 3 0H52C53.6569 0 55 1.34315 55 3V38C55 39.6569 53.6569 41 52 41H3C1.34315 41 0 39.6569 0 38V3Z" fill="#0742A6"/>
<path fill-rule="evenodd" clip-rule="evenodd" d="M25.5736 26.511H22.3994L24.3848 14.628H27.5588L25.5736 26.511Z" fill="white"/>
<path fill-rule="evenodd" clip-rule="evenodd" d="M37.0803 14.9185C36.4542 14.6781 35.4612 14.4126 34.2333 14.4126C31.0987 14.4126 28.8913 16.0306 28.8778 18.3439C28.8517 20.0507 30.4582 20.9986 31.6597 21.5677C32.8877 22.1492 33.3052 22.5288 33.3052 23.0471C33.2927 23.8432 32.3128 24.2101 31.399 24.2101C30.1317 24.2101 29.4527 24.0209 28.4207 23.578L28.0028 23.3882L27.5586 26.0557C28.3031 26.384 29.6747 26.6753 31.0987 26.6881C34.4292 26.6881 36.5976 25.0951 36.6232 22.6299C36.6359 21.2772 35.7877 20.2407 33.9589 19.3937C32.8487 18.85 32.1688 18.4834 32.1688 17.9271C32.1818 17.4213 32.7438 16.9033 33.997 16.9033C35.0289 16.878 35.7871 17.1181 36.3615 17.3583L36.6486 17.4845L37.0803 14.9185Z" fill="white"/>
<path fill-rule="evenodd" clip-rule="evenodd" d="M42.7616 14.628H45.2168L47.7776 26.5108H44.8386C44.8386 26.5108 44.551 25.1455 44.4598 24.7283H40.3845C40.2666 25.0442 39.7183 26.5108 39.7183 26.5108H36.3877L41.1025 15.6139C41.4292 14.8427 42.0044 14.628 42.7616 14.628ZM42.566 18.9765C42.566 18.9765 41.5601 21.6186 41.2987 22.3012H43.937C43.8065 21.7071 43.2054 18.8627 43.2054 18.8627L42.9836 17.8388C42.8902 18.1025 42.7551 18.465 42.664 18.7095C42.6022 18.8752 42.5606 18.9867 42.566 18.9765Z" fill="white"/>
<path fill-rule="evenodd" clip-rule="evenodd" d="M19.7479 14.628L16.6393 22.7311L16.2997 21.0877C15.7249 19.1914 13.9225 17.1312 11.9111 16.1067L14.7585 26.4984H18.1151L23.1043 14.628H19.7479V14.628Z" fill="white"/>
<path fill-rule="evenodd" clip-rule="evenodd" d="M13.7529 14.628H8.646L8.59375 14.8681C12.5775 15.8542 15.2158 18.2312 16.2998 21.0882L15.1896 15.6269C15.0069 14.8679 14.4452 14.653 13.7529 14.628Z" fill="white"/>
</svg>
