<svg width="35" height="35" viewBox="0 0 35 35" fill="none" xmlns="http://www.w3.org/2000/svg">
<path d="M2.91669 17.5C2.91669 21.3677 4.45314 25.0771 7.18805 27.812C8.54223 29.1662 10.1499 30.2404 11.9192 30.9732C13.6886 31.7061 15.5849 32.0833 17.5 32.0833C21.3678 32.0833 25.0771 30.5469 27.812 27.812C30.5469 25.0771 32.0834 21.3677 32.0834 17.5C32.0834 15.5849 31.7061 13.6885 30.9733 11.9192C30.2404 10.1499 29.1662 8.54221 27.812 7.18803C26.4578 5.83384 24.8502 4.75964 23.0808 4.02676C21.3115 3.29388 19.4151 2.91667 17.5 2.91667C15.5849 2.91667 13.6886 3.29388 11.9192 4.02676C10.1499 4.75964 8.54223 5.83384 7.18805 7.18803C4.45314 9.92293 2.91669 13.6323 2.91669 17.5ZM5.83335 17.5C5.83335 14.4058 7.06252 11.4383 9.25044 9.25042C11.4384 7.0625 14.4058 5.83333 17.5 5.83333C20.5942 5.83333 23.5617 7.0625 25.7496 9.25042C27.9375 11.4383 29.1667 14.4058 29.1667 17.5C29.1667 20.5942 27.9375 23.5617 25.7496 25.7496C23.5617 27.9375 20.5942 29.1667 17.5 29.1667C14.4058 29.1667 11.4384 27.9375 9.25044 25.7496C7.06252 23.5617 5.83335 20.5942 5.83335 17.5ZM14.5834 24.7917L21.875 17.5L14.5834 10.2083V24.7917Z" fill="white"/>
</svg>
