<svg width="55" height="41" viewBox="0 0 55 41" fill="none" xmlns="http://www.w3.org/2000/svg">
<path fill-rule="evenodd" clip-rule="evenodd" d="M0 3C0 1.34315 1.34315 0 3 0H52C53.6569 0 55 1.34315 55 3V38C55 39.6569 53.6569 41 52 41H3C1.34315 41 0 39.6569 0 38V3Z" fill="#F7931A"/>
<path fill-rule="evenodd" clip-rule="evenodd" d="M35.3686 18.5197C35.6762 16.4761 34.1108 15.3776 31.9703 14.6447L32.6646 11.8765L30.9693 11.4565L30.2933 14.1518C29.8476 14.0414 29.3899 13.9373 28.935 13.8341L29.6158 11.121L27.9215 10.7011L27.2267 13.4684C26.8578 13.3849 26.4956 13.3023 26.1441 13.2155L26.146 13.2068L23.808 12.6266L23.357 14.4263C23.357 14.4263 24.6149 14.7129 24.5883 14.7306C25.2749 14.901 25.399 15.3526 25.3783 15.7106L24.5873 18.8643C24.6347 18.8763 24.696 18.8936 24.7636 18.9204L24.7061 18.9062L24.706 18.9061C24.6667 18.8963 24.626 18.8862 24.5844 18.8763L23.4758 23.2941C23.3918 23.5014 23.1788 23.8124 22.6989 23.6943C22.7158 23.7188 21.4666 23.3886 21.4666 23.3886L20.625 25.3175L22.8312 25.8641C23.0776 25.9255 23.321 25.9886 23.5619 26.051L23.5619 26.051C23.7223 26.0926 23.8815 26.1339 24.0398 26.1741L23.3382 28.9741L25.0316 29.394L25.7264 26.6238C26.189 26.7486 26.6381 26.8638 27.0775 26.9723L26.385 29.7295L28.0804 30.1494L28.7819 27.3548C31.6728 27.8985 33.8467 27.6792 34.7617 25.0804C35.499 22.9879 34.725 21.7808 33.204 20.9937C34.3117 20.7399 35.146 20.0156 35.3686 18.5197ZM31.4951 23.9185C31.0145 25.8382 27.9912 25.0446 26.6079 24.6814C26.4834 24.6487 26.3722 24.6195 26.2773 24.5961L27.2083 20.8867C27.3238 20.9154 27.4649 20.9469 27.6248 20.9825C29.0556 21.3016 31.9877 21.9556 31.4951 23.9185ZM27.9123 19.2611C29.0656 19.567 31.5813 20.2343 32.0195 18.4895C32.467 16.7047 30.0219 16.1667 28.8278 15.904C28.6935 15.8744 28.575 15.8484 28.4782 15.8244L27.6342 19.1887C27.7139 19.2085 27.8075 19.2333 27.9123 19.2611Z" fill="white"/>
</svg>
