<svg width="55" height="41" viewBox="0 0 55 41" fill="none" xmlns="http://www.w3.org/2000/svg">
<path d="M0.5 3C0.5 1.61929 1.61929 0.5 3 0.5H52C53.3807 0.5 54.5 1.61929 54.5 3V38C54.5 39.3807 53.3807 40.5 52 40.5H3C1.61929 40.5 0.5 39.3807 0.5 38V3Z" fill="white" stroke="#EFEFEF"/>
<path fill-rule="evenodd" clip-rule="evenodd" d="M27.2985 23.9818V20.3631V20.3624H29.2681C30.0801 20.3628 30.7625 20.1092 31.3154 19.6016C31.8741 19.1197 32.1864 18.427 32.1705 17.7049C32.1816 16.9868 31.8698 16.2991 31.3154 15.8189C30.7674 15.3084 30.0303 15.0299 29.2681 15.0452H26.1064V23.9818H27.2985ZM27.2985 19.265V16.1455V16.1448H29.2977C29.7433 16.1327 30.1728 16.3054 30.4772 16.6189C30.7835 16.9057 30.9563 17.2996 30.9563 17.711C30.9563 18.1223 30.7835 18.5162 30.4772 18.803C30.169 19.11 29.7408 19.2777 29.2977 19.265H27.2985Z" fill="#5F6368"/>
<path fill-rule="evenodd" clip-rule="evenodd" d="M37.0043 18.3481C36.4944 17.8946 35.7989 17.6678 34.9178 17.6678C33.7859 17.6678 32.9312 18.0671 32.3537 18.8657L33.4036 19.5025C33.7916 18.9615 34.3185 18.691 34.9844 18.691C35.4089 18.6863 35.8198 18.8357 36.135 19.1096C36.4493 19.3599 36.6301 19.733 36.6274 20.1257V20.3881C36.1693 20.1385 35.5864 20.0137 34.8785 20.0137C34.0492 20.0147 33.3863 20.202 32.8897 20.5756C32.3931 20.9493 32.1449 21.4524 32.1449 22.0851C32.134 22.6613 32.3935 23.2114 32.8512 23.5825C33.3221 23.9818 33.9073 24.1815 34.6068 24.1815C35.4262 24.1815 36.0827 23.8321 36.5763 23.1333H36.6281V23.9818H37.7684V20.2134C37.7689 19.4233 37.5142 18.8016 37.0043 18.3481ZM33.7708 22.8589C33.5211 22.6855 33.3738 22.4066 33.3754 22.1102C33.3754 21.7772 33.5376 21.4998 33.8641 21.2716C34.1874 21.0468 34.5912 20.9344 35.0755 20.9344C35.7404 20.9344 36.2587 21.077 36.6304 21.3622C36.6304 21.8442 36.4329 22.2642 36.038 22.6221C35.6823 22.9647 35.2001 23.1575 34.6971 23.1584C34.3617 23.1644 34.0345 23.0586 33.7708 22.8589Z" fill="#5F6368"/>
<path fill-rule="evenodd" clip-rule="evenodd" d="M44.3138 17.8674L40.3332 26.6771H39.1027L40.5798 23.5946L37.9624 17.8674H39.2581L41.1499 22.2598H41.1759L43.0158 17.8674H44.3138Z" fill="#5F6368"/>
<path fill-rule="evenodd" clip-rule="evenodd" d="M22.4816 19.583C22.4821 19.2332 22.4513 18.8839 22.3898 18.5391H17.3623V20.5164H20.2418C20.1228 21.1545 19.7381 21.7181 19.1771 22.0765V23.36H20.8956C21.9019 22.4666 22.4816 21.1453 22.4816 19.583Z" fill="#4285F4"/>
<path fill-rule="evenodd" clip-rule="evenodd" d="M17.3623 24.6C18.8009 24.6 20.0123 24.1451 20.8956 23.3607L19.1771 22.0772C18.6988 22.3896 18.0827 22.5678 17.3623 22.5678C15.9718 22.5678 14.7915 21.6651 14.3695 20.4487H12.5991V21.7714C13.504 23.5054 15.347 24.5999 17.3623 24.6Z" fill="#34A853"/>
<path fill-rule="evenodd" clip-rule="evenodd" d="M14.3693 20.4486C14.1462 19.8112 14.1462 19.1209 14.3693 18.4835V17.1608H12.5989C11.842 18.6112 11.842 20.3209 12.5989 21.7713L14.3693 20.4486Z" fill="#FBBC04"/>
<path fill-rule="evenodd" clip-rule="evenodd" d="M17.3623 16.3643C18.1225 16.3524 18.8572 16.629 19.4073 17.1344L20.9289 15.6691C19.9641 14.7964 18.6859 14.3173 17.3623 14.3322C15.347 14.3323 13.504 15.4267 12.5991 17.1608L14.3695 18.4835C14.7915 17.2671 15.9718 16.3643 17.3623 16.3643Z" fill="#EA4335"/>
</svg>
