<svg width="24" height="21" viewBox="0 0 24 21" fill="none" xmlns="http://www.w3.org/2000/svg">
<path d="M9.99992 10.068H2.66659C2.31296 10.068 1.97382 9.94728 1.72378 9.73248C1.47373 9.51769 1.33325 9.22636 1.33325 8.92259V4.91382C1.33325 4.61006 1.47373 4.31873 1.72378 4.10393C1.97382 3.88913 2.31296 3.76846 2.66659 3.76846H9.99992C10.3535 3.76846 10.6927 3.88913 10.9427 4.10393C11.1928 4.31873 11.3333 4.61006 11.3333 4.91382V8.92259C11.3333 9.22636 11.1928 9.51769 10.9427 9.73248C10.6927 9.94728 10.3535 10.068 9.99992 10.068ZM2.66659 4.91382V8.92259H9.99992V4.91382H2.66659Z" fill="#828282"/>
<path d="M21.3334 10.068H14.0001C13.6465 10.068 13.3073 9.94728 13.0573 9.73248C12.8072 9.51769 12.6667 9.22636 12.6667 8.92259V4.91382C12.6667 4.61006 12.8072 4.31873 13.0573 4.10393C13.3073 3.88913 13.6465 3.76846 14.0001 3.76846H21.3334C21.687 3.76846 22.0262 3.88913 22.2762 4.10393C22.5263 4.31873 22.6667 4.61006 22.6667 4.91382V8.92259C22.6667 9.22636 22.5263 9.51769 22.2762 9.73248C22.0262 9.94728 21.687 10.068 21.3334 10.068ZM14.0001 4.91382V8.92259H21.3334V4.91382H14.0001Z" fill="#828282"/>
<path d="M9.99992 17.5128H2.66659C2.31296 17.5128 1.97382 17.3921 1.72378 17.1773C1.47373 16.9625 1.33325 16.6712 1.33325 16.3674V12.3587C1.33325 12.0549 1.47373 11.7636 1.72378 11.5488C1.97382 11.334 2.31296 11.2133 2.66659 11.2133H9.99992C10.3535 11.2133 10.6927 11.334 10.9427 11.5488C11.1928 11.7636 11.3333 12.0549 11.3333 12.3587V16.3674C11.3333 16.6712 11.1928 16.9625 10.9427 17.1773C10.6927 17.3921 10.3535 17.5128 9.99992 17.5128ZM2.66659 12.3587V16.3674H9.99992V12.3587H2.66659Z" fill="#828282"/>
<path d="M21.3334 17.5128H14.0001C13.6465 17.5128 13.3073 17.3921 13.0573 17.1773C12.8072 16.9625 12.6667 16.6712 12.6667 16.3674V12.3587C12.6667 12.0549 12.8072 11.7636 13.0573 11.5488C13.3073 11.334 13.6465 11.2133 14.0001 11.2133H21.3334C21.687 11.2133 22.0262 11.334 22.2762 11.5488C22.5263 11.7636 22.6667 12.0549 22.6667 12.3587V16.3674C22.6667 16.6712 22.5263 16.9625 22.2762 17.1773C22.0262 17.3921 21.687 17.5128 21.3334 17.5128ZM14.0001 12.3587V16.3674H21.3334V12.3587H14.0001Z" fill="#828282"/>
</svg>
