<svg width="126" height="48" viewBox="0 0 126 48" fill="none" xmlns="http://www.w3.org/2000/svg">
<g clip-path="url(#clip0_67_499)">
<path d="M65.0514 15.692L71.046 15.2997C71.1827 16.292 71.4334 17.0305 71.8437 17.5612C72.5047 18.392 73.4164 18.8074 74.6245 18.8074C75.5134 18.8074 76.22 18.5997 76.6986 18.1612C77.1545 17.8151 77.428 17.2612 77.428 16.6843C77.428 16.1305 77.1773 15.5997 76.7442 15.2536C76.2884 14.8382 75.2171 14.4228 73.5304 14.0536C70.7724 13.4305 68.7894 12.5998 67.627 11.5383C66.4645 10.546 65.8035 9.09215 65.8491 7.54603C65.8491 6.48451 66.1682 5.423 66.7608 4.54609C67.4446 3.5538 68.3792 2.7692 69.496 2.33075C70.704 1.79999 72.3907 1.52307 74.5105 1.52307C77.1089 1.52307 79.0919 2.00768 80.4595 2.99997C81.8271 3.96918 82.6476 5.53838 82.8983 7.68449L76.9721 8.03064C76.8126 7.10758 76.4935 6.43836 75.9692 5.99991C75.445 5.56145 74.7612 5.35377 73.8723 5.35377C73.1429 5.35377 72.5959 5.5153 72.2312 5.8153C71.8893 6.09221 71.6614 6.50759 71.6842 6.96912C71.6842 7.31527 71.8665 7.63834 72.14 7.84602C72.4363 8.12294 73.1429 8.37678 74.2598 8.60755C77.0177 9.20754 78.9779 9.80753 80.186 10.4306C81.394 11.0537 82.2601 11.8152 82.7844 12.7152C83.3314 13.6382 83.6049 14.6997 83.5821 15.7843C83.5821 17.0766 83.2174 18.3689 82.4881 19.4535C81.7359 20.5842 80.6874 21.4611 79.4566 21.9919C78.1574 22.5688 76.5163 22.8688 74.5561 22.8688C71.0915 22.8688 68.6983 22.1996 67.3535 20.8381C66.0087 19.4766 65.2109 17.7689 65.0514 15.692ZM1.43596 22.5227V1.89229H11.9436C13.881 1.89229 15.3853 2.05383 16.411 2.39998C17.4139 2.72305 18.3028 3.39227 18.8954 4.29225C19.5564 5.28454 19.8755 6.43836 19.8527 7.63834C19.9211 9.66907 18.8954 11.6075 17.1404 12.6229C16.4566 13.0152 15.7044 13.2921 14.9295 13.4305C15.4993 13.5921 16.0691 13.869 16.5705 14.1921C16.958 14.5151 17.2771 14.8843 17.5734 15.2766C17.9153 15.6689 18.2116 16.1074 18.4624 16.5689L21.5166 22.5457H14.3596L10.9863 16.1997C10.5532 15.392 10.1885 14.8613 9.8466 14.6074C9.39074 14.2844 8.84371 14.1228 8.29667 14.1228H7.74964V22.4996H1.43596V22.5227ZM7.74964 10.246H10.4164C10.9863 10.1998 11.5333 10.1075 12.0803 9.96906C12.4906 9.89983 12.8553 9.66907 13.106 9.32292C13.7214 8.49217 13.6302 7.31527 12.8781 6.5999C12.4678 6.25375 11.67 6.06914 10.5304 6.06914H7.74964V10.246ZM0 40.1992L5.99457 39.8069C6.13133 40.7992 6.38205 41.5377 6.79233 42.0684C7.43054 42.8992 8.36505 43.3376 9.57308 43.3376C10.462 43.3376 11.1686 43.13 11.6473 42.6915C12.1031 42.3223 12.3766 41.7915 12.3766 41.2146C12.3766 40.6608 12.1259 40.13 11.6928 39.7839C11.237 39.3685 10.1657 38.9531 8.45622 38.5839C5.69826 37.9608 3.71527 37.1301 2.55282 36.0686C1.39038 35.0763 0.729378 33.6224 0.774964 32.0763C0.774964 31.0148 1.09407 29.9533 1.68669 29.0764C2.37048 28.0841 3.30499 27.2995 4.42185 26.861C5.62988 26.3303 7.31657 26.0534 9.43632 26.0534C12.0347 26.0534 14.0177 26.538 15.3853 27.5303C16.7529 28.5225 17.5506 30.0687 17.8014 32.2148L11.8752 32.5609C11.7156 31.6379 11.3965 30.9687 10.8723 30.5302C10.3708 30.0917 9.66425 29.8841 8.77533 29.9071C8.04595 29.9071 7.49891 30.0687 7.13423 30.3917C6.76954 30.6687 6.5644 31.084 6.58719 31.5456C6.58719 31.8917 6.76954 32.2148 7.04305 32.4225C7.33936 32.6994 8.04595 32.9532 9.16281 33.184C11.9208 33.784 13.881 34.384 15.089 35.007C16.297 35.6301 17.1632 36.3916 17.6874 37.2916C18.2344 38.2147 18.508 39.2762 18.508 40.3377C18.508 41.63 18.1205 42.8992 17.4139 43.9838C16.6617 45.1145 15.6132 45.9914 14.3824 46.5222C13.0832 47.0991 11.4421 47.3991 9.48191 47.3991C6.01737 47.3991 3.6241 46.7299 2.27931 45.3684C0.934515 43.9838 0.182344 42.2761 0 40.1992H0Z" fill="#C73153"/>
<path d="M30.3148 38.5839L35.8307 40.2685C35.5344 41.6761 34.919 43.0146 34.0756 44.1915C33.3007 45.2299 32.275 46.0376 31.1125 46.5683C29.9273 47.0991 28.4229 47.376 26.5995 47.376C24.3886 47.376 22.5651 47.0529 21.1748 46.4068C19.7616 45.7607 18.5536 44.6068 17.5279 42.9684C16.5022 41.33 16.0007 39.23 16.0007 36.6685C16.0007 33.2532 16.8897 30.6225 18.6903 28.7994C20.491 26.9764 23.021 26.0533 26.3032 26.0533C28.8788 26.0533 30.8846 26.5841 32.3661 27.6225C33.8249 28.6841 34.919 30.2994 35.6483 32.4686L30.0868 33.7147C29.9501 33.2301 29.7449 32.7455 29.4714 32.3301C29.1295 31.8455 28.6965 31.4763 28.1722 31.1994C27.648 30.9225 27.0554 30.8071 26.4627 30.8071C25.0268 30.8071 23.9327 31.384 23.1805 32.5609C22.6107 33.4147 22.3144 34.7763 22.3144 36.6224C22.3144 38.9069 22.6563 40.4761 23.3401 41.33C24.0239 42.1838 24.9812 42.5992 26.2348 42.5992C27.4428 42.5992 28.3546 42.253 28.97 41.5838C29.5854 40.8684 30.0413 39.8762 30.3148 38.5839ZM43.1928 26.3995H49.4837V33.6224H56.3672V26.3995H62.7037V47.0299H56.3672V38.6762H49.4837V47.0299H43.1928V26.3995Z" fill="#C73153"/>
<path d="M61.8376 36.7147C61.8376 33.3455 62.7722 30.7148 64.6184 28.8456C66.4646 26.9764 69.063 26.0303 72.368 26.0303C75.7642 26.0303 78.3626 26.9533 80.2088 28.7995C82.0551 30.6456 82.9668 33.2301 82.9668 36.5531C82.9668 38.9762 82.5565 40.9377 81.7588 42.4838C80.9838 44.0068 79.7758 45.253 78.2942 46.0837C76.7671 46.9376 74.8753 47.376 72.6188 47.376C70.3167 47.376 68.4248 47.0068 66.9205 46.2683C65.3706 45.4837 64.0942 44.2607 63.2508 42.7607C62.3163 41.1454 61.8376 39.1377 61.8376 36.7147ZM68.1285 36.7378C68.1285 38.8146 68.516 40.3146 69.2682 41.2377C70.0204 42.1376 71.0688 42.5992 72.3908 42.5992C73.7356 42.5992 74.7841 42.1607 75.5363 41.2607C76.2884 40.3608 76.6531 38.7685 76.6531 36.4608C76.6531 34.5224 76.2657 33.0917 75.4907 32.2148C74.7157 31.3148 73.6672 30.8763 72.3452 30.8763C71.1828 30.8302 70.0659 31.3379 69.291 32.2378C68.516 33.1378 68.1285 34.6378 68.1285 36.7378ZM89.4172 36.7147C89.4172 33.3455 90.3518 30.7148 92.198 28.8456C94.0442 26.9764 96.6426 26.0303 99.9476 26.0303C103.344 26.0303 105.965 26.9533 107.788 28.7995C109.612 30.6456 110.546 33.2301 110.546 36.5531C110.546 38.9762 110.136 40.9377 109.338 42.4838C108.563 44.0068 107.355 45.253 105.874 46.0837C104.347 46.9376 102.455 47.376 100.198 47.376C97.8963 47.376 96.0044 47.0068 94.5001 46.2683C92.9502 45.4837 91.6738 44.2607 90.8304 42.7607C89.8959 41.1454 89.4172 39.1377 89.4172 36.7147ZM95.7081 36.7378C95.7081 38.8146 96.0956 40.3146 96.8478 41.2377C97.5999 42.1376 98.6484 42.5992 99.9704 42.5992C101.315 42.5992 102.364 42.1607 103.116 41.2607C103.868 40.3608 104.233 38.7685 104.233 36.4608C104.233 34.5224 103.845 33.0917 103.07 32.2148C102.295 31.3148 101.247 30.8763 99.9248 30.8763C98.7624 30.8302 97.6227 31.3379 96.8706 32.2378C96.0956 33.1378 95.7081 34.6378 95.7081 36.7378Z" fill="#C73153"/>
<path d="M109.885 26.3995H116.176V41.9531H126V47.0299H109.863V26.3995H109.885Z" fill="#C73153"/>
<path d="M102.951 25.2089C109.285 20.3767 111.238 12.1853 107.314 6.91294C103.389 1.64058 95.0735 1.28377 88.7399 6.11598C82.4064 10.9482 80.4533 19.1396 84.3776 24.4119C88.302 29.6843 96.6177 30.0411 102.951 25.2089Z" fill="white"/>
<path d="M102.951 25.2089C109.285 20.3767 111.238 12.1853 107.314 6.91294C103.389 1.64058 95.0735 1.28377 88.7399 6.11598C82.4064 10.9482 80.4533 19.1396 84.3776 24.4119C88.302 29.6843 96.6177 30.0411 102.951 25.2089Z" stroke="#C73153" stroke-width="2" stroke-miterlimit="10"/>
<path d="M89.4398 14.1459L91.7192 12.5305L94.5227 16.5689C95.0014 17.215 95.366 17.9073 95.6396 18.6689C95.7991 19.2458 95.7535 19.8688 95.5256 20.4227C95.2293 21.115 94.7506 21.6919 94.1124 22.1073C93.3602 22.638 92.722 22.938 92.175 23.0303C91.6508 23.1226 91.1037 23.0303 90.6023 22.7995C90.0553 22.5226 89.5766 22.1303 89.2119 21.6226L91.1721 19.7765C91.3317 20.0304 91.5368 20.2611 91.7647 20.4457C91.9243 20.5611 92.1066 20.6304 92.3118 20.6304C92.4713 20.6304 92.6309 20.5611 92.7448 20.4688C92.9728 20.3304 93.1323 20.0534 93.1095 19.7765C93.0411 19.3842 92.8816 18.9919 92.6309 18.6919L89.4398 14.1459ZM96.2778 16.7074L98.3519 15.0459C98.5799 15.3228 98.8762 15.5305 99.1953 15.6458C99.6511 15.7843 100.13 15.692 100.517 15.392C100.791 15.2074 101.019 14.9535 101.11 14.6305C101.247 14.2151 101.019 13.7536 100.608 13.6151C100.54 13.592 100.472 13.569 100.403 13.569C100.13 13.5459 99.6511 13.6613 98.9446 13.9613C97.7821 14.4459 96.8704 14.6305 96.1866 14.5612C95.5256 14.492 94.9102 14.1459 94.5455 13.569C94.272 13.1767 94.1352 12.7151 94.1124 12.2536C94.1124 11.7228 94.2492 11.1921 94.5455 10.7536C94.9786 10.1306 95.5028 9.5998 96.141 9.18443C97.0983 8.51521 97.9417 8.19214 98.671 8.19214C99.4004 8.19214 100.084 8.53829 100.722 9.25366L98.671 10.8921C98.2608 10.3613 97.4858 10.2459 96.9616 10.6613L96.8932 10.7306C96.6652 10.869 96.5057 11.0767 96.4145 11.3305C96.3461 11.5152 96.3917 11.7228 96.5057 11.8844C96.5969 11.9998 96.7336 12.0921 96.8932 12.0921C97.0755 12.1151 97.3946 12.0228 97.8505 11.8151C98.9901 11.3305 99.8563 11.0536 100.449 10.9613C100.95 10.869 101.475 10.9152 101.953 11.1229C102.386 11.3075 102.751 11.6305 103.002 12.0228C103.321 12.4844 103.503 13.0382 103.526 13.6151C103.549 14.2151 103.389 14.792 103.07 15.2997C102.66 15.9228 102.136 16.4535 101.52 16.8689C100.267 17.7458 99.2409 18.115 98.4203 17.9766C97.5314 17.8381 96.802 17.3766 96.2778 16.7074Z" fill="#C73153"/>
</g>
<defs>
<clipPath id="clip0_67_499">
<rect width="126" height="47.376" fill="white"/>
</clipPath>
</defs>
</svg>
